<?xml version="1.0" encoding="UTF-8"?>
<svg xmlns="http://www.w3.org/2000/svg" xmlns:xlink="http://www.w3.org/1999/xlink" width="282pt" height="58pt" viewBox="0 0 282 58" version="1.1">
<g id="surface1">
<path style=" stroke:none;fill-rule:nonzero;fill:rgb(83.921569%,9.019608%,12.156863%);fill-opacity:1;" d="M 0 0.0117188 L 57.785156 0.0117188 L 57.785156 57.988281 L 0 57.988281 Z M 0 0.0117188 "/>
<path style=" stroke:none;fill-rule:nonzero;fill:rgb(0%,0%,0%);fill-opacity:1;" d="M 164.203125 12.460938 L 166.480469 12.460938 C 170.734375 12.460938 174.988281 12.386719 179.226562 12.460938 C 182.164062 12.503906 184.960938 13.066406 187.570312 14.644531 C 191.730469 17.15625 192.800781 23.984375 187.632812 27.132812 C 186.660156 27.726562 185.632812 28.25 184.402344 28.9375 C 185.097656 29.191406 185.636719 29.441406 186.191406 29.609375 C 188.425781 30.300781 190.445312 31.367188 191.875 33.261719 C 194.875 37.277344 192.640625 41.972656 188.621094 43.941406 C 185.90625 45.269531 183.019531 45.664062 180.050781 45.667969 C 175.214844 45.667969 170.382812 45.667969 165.558594 45.667969 C 163.980469 45.667969 163.839844 45.46875 164.242188 43.804688 C 165.027344 43.617188 165.824219 43.472656 166.628906 43.371094 C 168.273438 43.246094 168.75 42.8125 168.753906 41.132812 C 168.753906 34.238281 168.753906 27.34375 168.753906 20.441406 C 168.753906 19.230469 168.675781 18.011719 168.753906 16.808594 C 168.828125 15.601562 168.183594 15.128906 167.222656 14.871094 C 166.652344 14.746094 166.078125 14.660156 165.496094 14.621094 C 164.015625 14.449219 163.867188 14.242188 164.203125 12.460938 Z M 174.800781 30.03125 C 174.742188 30.785156 174.695312 31.109375 174.695312 31.433594 C 174.695312 34.359375 174.695312 37.289062 174.695312 40.21875 C 174.695312 41.746094 175.316406 42.496094 176.75 42.945312 C 178.695312 43.554688 180.605469 43.394531 182.539062 42.902344 C 185.160156 42.234375 186.949219 39.890625 187 36.960938 C 187.058594 33.617188 185.703125 31.332031 182.808594 30.769531 C 180.246094 30.253906 177.578125 30.257812 174.800781 30.023438 Z M 174.726562 27.703125 C 176.566406 27.703125 178.277344 27.875 179.9375 27.660156 C 182.15625 27.378906 184.027344 26.285156 184.679688 23.980469 C 185.429688 21.363281 185.703125 18.707031 183.722656 16.40625 C 183.363281 16.003906 182.925781 15.675781 182.441406 15.445312 C 179.953125 14.261719 177.347656 14.863281 174.726562 14.78125 Z M 174.726562 27.703125 "/>
<path style=" stroke:none;fill-rule:nonzero;fill:rgb(0%,0%,0%);fill-opacity:1;" d="M 92.875 13.941406 C 93.660156 12.785156 94.484375 11.914062 96.078125 12.71875 L 96.078125 23.582031 L 94.097656 23.582031 C 93.519531 22.128906 92.984375 20.640625 92.332031 19.203125 C 91.347656 17.035156 89.859375 15.214844 87.527344 14.574219 C 85.15625 13.921875 82.605469 13.613281 80.519531 15.371094 C 77.660156 17.78125 78.46875 22.316406 82.078125 24.046875 C 84.078125 25.015625 86.289062 25.582031 88.320312 26.519531 C 90.640625 27.585938 93.074219 28.601562 95.09375 30.109375 C 98.871094 32.917969 98.519531 38.691406 95.816406 41.910156 C 93.507812 44.65625 90.476562 45.964844 87 46.265625 C 83.75 46.574219 80.472656 45.988281 77.527344 44.574219 C 76.945312 44.292969 76.277344 44.027344 75.90625 44.804688 C 75.316406 46.058594 74.335938 45.761719 73.097656 45.605469 L 73.097656 34.382812 C 74.796875 33.902344 75.15625 34.183594 75.851562 36.265625 C 76.964844 39.648438 79.046875 42.234375 82.433594 43.480469 C 84.742188 44.335938 87.15625 44.4375 89.484375 43.398438 C 92.542969 42.035156 93.582031 37.625 91.488281 35.007812 C 90.382812 33.640625 88.914062 32.613281 87.253906 32.050781 C 84.21875 30.9375 81.082031 29.960938 78.265625 28.425781 C 74.261719 26.238281 73.378906 23.492188 73.933594 19.433594 C 74.335938 16.484375 76.371094 14.429688 79 13.15625 C 83.066406 11.199219 87.1875 11.289062 91.257812 13.25 C 91.730469 13.488281 92.238281 13.675781 92.875 13.941406 Z M 92.875 13.941406 "/>
<path style=" stroke:none;fill-rule:nonzero;fill:rgb(0%,0%,0%);fill-opacity:1;" d="M 280.050781 22.605469 C 280.417969 23.652344 280.132812 24.179688 279.074219 24.476562 C 275.019531 25.609375 272.148438 28.453125 269.171875 31.371094 C 270.515625 33.027344 271.800781 34.59375 273.074219 36.171875 C 274.386719 37.789062 275.695312 39.410156 276.996094 41.039062 C 278.230469 42.570312 279.609375 43.871094 281.878906 43.824219 C 281.921875 44.378906 281.957031 44.847656 282 45.457031 C 281.421875 45.519531 280.945312 45.609375 280.464844 45.613281 C 279.171875 45.632812 277.859375 45.472656 276.589844 45.644531 C 274.765625 45.894531 273.820312 44.949219 272.839844 43.621094 C 270.5625 40.539062 268.15625 37.554688 265.832031 34.585938 C 264.058594 34.910156 263.421875 35.625 263.417969 37.175781 C 263.417969 38.265625 263.472656 39.355469 263.417969 40.441406 C 263.304688 42.980469 264.167969 43.253906 266.5 43.777344 C 266.75 43.800781 267 43.800781 267.25 43.777344 C 267.289062 44.34375 267.320312 44.847656 267.367188 45.507812 L 254.859375 45.507812 L 254.859375 43.941406 C 255.65625 43.796875 256.4375 43.691406 257.1875 43.496094 C 257.992188 43.28125 258.398438 42.742188 258.398438 41.839844 C 258.371094 32.800781 258.382812 23.765625 258.359375 14.738281 C 258.359375 13.15625 257.59375 12.355469 255.988281 12.074219 C 255.371094 12.007812 254.761719 11.871094 254.167969 11.675781 C 253.878906 11.554688 253.523438 11.113281 253.535156 10.832031 C 253.550781 10.550781 253.945312 10.027344 254.210938 10.007812 C 256.992188 9.796875 259.777344 9.636719 262.570312 9.527344 C 263.488281 9.492188 263.417969 10.28125 263.417969 10.894531 C 263.417969 14.449219 263.417969 18.003906 263.417969 21.558594 C 263.417969 25.324219 263.417969 29.089844 263.417969 32.855469 C 263.4375 33.050781 263.464844 33.238281 263.507812 33.425781 C 263.789062 33.339844 264.0625 33.335938 264.210938 33.199219 C 266.625 30.960938 269.039062 28.71875 271.410156 26.4375 C 271.691406 26.167969 271.960938 25.414062 271.84375 25.296875 C 271.445312 24.894531 270.9375 24.621094 270.382812 24.511719 C 268.859375 24.304688 268.742188 24.222656 269.019531 22.632812 Z M 280.050781 22.605469 "/>
<path style=" stroke:none;fill-rule:nonzero;fill:rgb(0%,0%,0%);fill-opacity:1;" d="M 141.96875 12.765625 C 143.4375 12.378906 144.21875 12.660156 144.804688 14.089844 C 148.089844 22.054688 151.507812 29.96875 154.878906 37.894531 C 155.285156 38.855469 155.671875 39.828125 156.128906 40.769531 C 156.804688 42.199219 157.851562 43.179688 159.484375 43.425781 C 160.015625 43.53125 160.535156 43.667969 161.050781 43.835938 C 161.4375 45.421875 161.28125 45.648438 159.777344 45.652344 C 155.570312 45.652344 151.363281 45.652344 147.15625 45.652344 C 146.953125 45.652344 146.75 45.621094 146.378906 45.589844 C 146.347656 45.023438 146.320312 44.484375 146.285156 43.832031 C 147.398438 43.65625 148.363281 43.480469 149.335938 43.359375 C 150.554688 43.207031 150.980469 42.484375 150.503906 41.335938 C 149.503906 38.921875 148.476562 36.507812 147.503906 34.074219 C 147.167969 33.238281 146.730469 32.851562 145.75 32.867188 C 142.546875 32.933594 139.347656 32.890625 135.84375 32.890625 C 134.941406 35.574219 134.074219 38.28125 133.117188 40.960938 C 132.5625 42.519531 133.324219 42.8125 134.867188 43.273438 C 135.847656 43.566406 136.882812 43.671875 137.957031 43.875 L 137.957031 45.511719 L 124.742188 45.511719 C 124.296875 44.507812 124.308594 43.753906 125.578125 43.585938 C 128.234375 43.214844 129.648438 41.5 130.628906 39.144531 C 133.078125 33.257812 135.613281 27.414062 138.136719 21.570312 C 139.390625 18.628906 140.691406 15.695312 141.96875 12.765625 Z M 141.65625 20.847656 L 141.300781 20.816406 L 137.273438 30.386719 L 145.753906 30.386719 Z M 141.65625 20.847656 "/>
<path style=" stroke:none;fill-rule:nonzero;fill:rgb(0%,0%,0%);fill-opacity:1;" d="M 223.914062 24.292969 L 223.914062 22.742188 C 224.316406 22.636719 224.726562 22.5625 225.136719 22.515625 C 227.300781 22.402344 229.464844 22.328125 231.625 22.222656 C 232.511719 22.179688 232.953125 22.535156 232.929688 23.460938 C 232.929688 23.960938 232.976562 24.496094 233.023438 25.394531 C 233.914062 24.734375 234.527344 24.292969 235.136719 23.828125 C 237.832031 21.75 240.890625 21.46875 244.03125 22.269531 C 246.648438 22.9375 248.433594 25.695312 248.476562 28.855469 C 248.53125 32.621094 248.574219 36.386719 248.476562 40.152344 C 248.414062 42.589844 248.742188 43.4375 251.957031 43.890625 C 251.988281 44.363281 252.027344 44.867188 252.0625 45.410156 C 251.796875 45.503906 251.519531 45.570312 251.238281 45.609375 C 247.699219 45.621094 244.15625 45.644531 240.613281 45.589844 C 240.277344 45.589844 239.757812 45.144531 239.652344 44.800781 C 239.460938 44.175781 239.84375 43.796875 240.539062 43.777344 C 240.996094 43.765625 241.453125 43.703125 241.894531 43.585938 C 242.878906 43.316406 243.398438 42.773438 243.375 41.613281 C 243.3125 37.472656 243.375 33.328125 243.355469 29.191406 C 243.355469 26.71875 241.582031 24.972656 239.105469 24.925781 C 237.421875 24.902344 235.78125 25.449219 234.449219 26.476562 C 233.445312 27.203125 232.828125 28.089844 232.871094 29.515625 C 232.988281 33.109375 232.898438 36.707031 232.894531 40.3125 C 232.894531 42.910156 233.265625 43.34375 235.882812 43.824219 C 236.085938 43.859375 236.28125 43.917969 236.605469 43.992188 C 236.628906 44.464844 236.65625 44.933594 236.683594 45.515625 C 236.160156 45.566406 235.761719 45.636719 235.359375 45.636719 C 232.027344 45.65625 228.695312 45.65625 225.355469 45.675781 C 224.734375 45.675781 224.164062 45.675781 224.128906 44.824219 C 224.09375 43.972656 224.59375 43.835938 225.320312 43.792969 C 227.261719 43.671875 227.792969 43.078125 227.796875 41.117188 C 227.808594 36.851562 227.808594 32.582031 227.796875 28.316406 C 227.796875 25.847656 227.277344 25.207031 224.851562 24.59375 C 224.589844 24.496094 224.3125 24.40625 223.914062 24.292969 Z M 223.914062 24.292969 "/>
<path style=" stroke:none;fill-rule:nonzero;fill:rgb(0%,0%,0%);fill-opacity:1;" d="M 212.335938 42.960938 C 209.582031 45.433594 206.707031 46.535156 203.363281 46.222656 C 200.164062 45.925781 198.003906 43.964844 197.652344 40.792969 C 197.351562 38.335938 198.695312 35.972656 200.957031 34.984375 C 203.796875 33.726562 206.796875 32.855469 209.714844 31.820312 C 209.914062 31.753906 210.117188 31.710938 210.316406 31.644531 C 212.417969 30.917969 212.621094 30.625 212.175781 28.453125 C 211.972656 27.449219 211.792969 26.355469 211.242188 25.542969 C 210.070312 23.808594 206.320312 23.265625 204.710938 24.597656 C 204.328125 24.917969 204.332031 25.964844 204.472656 26.605469 C 204.738281 27.792969 204.605469 28.769531 203.609375 29.503906 C 202.5625 30.277344 201.453125 30.511719 200.230469 29.847656 C 198.546875 28.921875 198.4375 26.472656 200.027344 24.898438 C 201.613281 23.328125 203.574219 22.515625 205.660156 22.136719 C 208.128906 21.671875 210.671875 21.804688 213.074219 22.53125 C 215.363281 23.242188 217.101562 25.625 217.199219 28.394531 C 217.28125 30.859375 217.199219 33.328125 217.183594 35.792969 C 217.183594 37.550781 217.140625 39.304688 217.183594 41.0625 C 217.21875 42.722656 217.851562 43.289062 219.488281 43.324219 C 220.101562 43.339844 220.707031 43.421875 221.394531 43.480469 L 221.394531 45.089844 C 219.769531 45.84375 218.113281 46.386719 216.332031 46.117188 C 214.550781 45.847656 213.042969 45.027344 212.335938 42.960938 Z M 212.394531 33.203125 C 209.15625 33.792969 206.433594 34.65625 204.257812 36.730469 C 202.890625 38.039062 202.683594 39.722656 203.332031 41.457031 C 203.941406 43.101562 205.347656 43.398438 206.894531 43.351562 C 207.226562 43.351562 207.5625 43.378906 207.894531 43.351562 C 209.257812 43.289062 211.898438 41.800781 211.976562 40.855469 C 212.191406 38.421875 212.25 35.980469 212.40625 33.203125 Z M 212.394531 33.203125 "/>
<path style=" stroke:none;fill-rule:nonzero;fill:rgb(0%,0%,0%);fill-opacity:1;" d="M 123.753906 32.617188 C 123.160156 32.652344 122.625 32.703125 122.097656 32.707031 C 117.636719 32.707031 113.179688 32.738281 108.722656 32.707031 C 107.660156 32.707031 107.246094 32.980469 107.328125 34.148438 C 107.511719 36.78125 107.886719 39.300781 109.816406 41.3125 C 111.019531 42.605469 112.703125 43.34375 114.464844 43.351562 C 116.675781 43.417969 118.839844 43.40625 120.511719 41.675781 C 121.261719 40.902344 121.890625 40.023438 122.632812 39.125 L 124.433594 40.058594 C 123.195312 42.382812 121.542969 44.132812 119.300781 45.109375 C 114.472656 47.203125 109.84375 46.699219 105.683594 43.402344 C 104.054688 42.109375 103.121094 40.222656 102.566406 38.226562 C 101.269531 33.582031 101.898438 29.246094 105.144531 25.558594 C 108.019531 22.296875 111.785156 21.570312 115.945312 22.074219 C 120.933594 22.675781 124.5625 27.414062 123.753906 32.617188 Z M 118.535156 30.425781 C 118.710938 26.714844 116.953125 24.03125 114.449219 24.03125 C 109.871094 24.03125 107.28125 26.359375 107.472656 30.425781 Z M 118.535156 30.425781 "/>
<path style=" stroke:none;fill-rule:nonzero;fill:rgb(100%,100%,100%);fill-opacity:1;" d="M 28.921875 55.824219 C 14.050781 56.019531 2.019531 43.746094 2.085938 28.832031 C 2.148438 14.046875 14.578125 2.132812 28.96875 2.183594 C 43.492188 2.226562 55.238281 14.121094 55.699219 28.039062 C 56.207031 43.738281 43.367188 56.140625 28.921875 55.824219 Z M 43.863281 29.050781 C 40.292969 27.414062 37.328125 25.582031 34.832031 23.078125 C 32.332031 20.570312 30.488281 17.566406 28.957031 14.253906 C 23.4375 23.15625 24.707031 22.804688 14.078125 29.148438 C 17.484375 30.546875 20.480469 32.414062 22.960938 34.957031 C 25.511719 37.59375 27.53125 40.699219 28.910156 44.101562 C 31.894531 36.972656 36.746094 32.113281 43.863281 29.050781 Z M 30.914062 52.027344 C 37.34375 51.394531 42.390625 48.65625 46.425781 44.039062 C 49.621094 40.429688 51.519531 35.851562 51.832031 31.035156 C 46.167969 31.695312 41.402344 33.71875 37.53125 37.621094 C 33.65625 41.527344 31.523438 46.273438 30.914062 52.027344 Z M 5.898438 31.058594 C 6.582031 37.371094 9.210938 42.554688 13.929688 46.601562 C 17.492188 49.710938 21.945312 51.605469 26.648438 52.015625 C 26.6875 43.796875 19.625 32.324219 5.90625 31.058594 Z M 26.71875 6.265625 C 18.527344 4.59375 5.550781 17.527344 6.003906 26.8125 C 14.574219 28.332031 27.535156 15.523438 26.71875 6.265625 Z M 30.925781 6.265625 C 31.527344 11.75 33.570312 16.460938 37.414062 20.324219 C 41.339844 24.265625 46.09375 26.460938 51.640625 26.96875 C 53.050781 18.375 39.707031 4.972656 30.925781 6.257812 Z M 30.925781 6.265625 "/>
<path style=" stroke:none;fill-rule:nonzero;fill:rgb(83.921569%,9.019608%,12.156863%);fill-opacity:1;" d="M 43.863281 29.050781 C 36.746094 32.113281 31.894531 36.972656 28.910156 44.101562 C 27.53125 40.699219 25.511719 37.59375 22.960938 34.957031 C 20.480469 32.398438 17.484375 30.546875 14.078125 29.148438 C 24.707031 22.804688 23.4375 23.15625 28.957031 14.253906 C 30.488281 17.566406 32.320312 20.5625 34.832031 23.078125 C 37.339844 25.59375 40.292969 27.414062 43.863281 29.050781 Z M 43.863281 29.050781 "/>
<path style=" stroke:none;fill-rule:nonzero;fill:rgb(83.921569%,9.019608%,12.156863%);fill-opacity:1;" d="M 30.914062 52.027344 C 31.527344 46.273438 33.640625 41.535156 37.523438 37.621094 C 41.40625 33.707031 46.160156 31.695312 51.824219 31.035156 C 51.515625 35.851562 49.613281 40.429688 46.417969 44.039062 C 42.390625 48.65625 37.34375 51.394531 30.914062 52.027344 Z M 30.914062 52.027344 "/>
<path style=" stroke:none;fill-rule:nonzero;fill:rgb(83.921569%,9.019608%,12.156863%);fill-opacity:1;" d="M 5.90625 31.058594 C 19.625 32.316406 26.6875 43.796875 26.671875 52.015625 C 21.96875 51.605469 17.515625 49.710938 13.953125 46.601562 C 9.222656 42.554688 6.59375 37.371094 5.90625 31.058594 Z M 5.90625 31.058594 "/>
<path style=" stroke:none;fill-rule:nonzero;fill:rgb(83.921569%,9.019608%,12.156863%);fill-opacity:1;" d="M 26.71875 6.265625 C 27.535156 15.523438 14.574219 28.332031 6.011719 26.8125 C 5.550781 17.527344 18.527344 4.59375 26.71875 6.265625 Z M 26.71875 6.265625 "/>
<path style=" stroke:none;fill-rule:nonzero;fill:rgb(83.921569%,9.019608%,12.156863%);fill-opacity:1;" d="M 30.925781 6.257812 C 39.707031 4.972656 53.050781 18.375 51.640625 26.949219 C 46.09375 26.449219 41.339844 24.25 37.414062 20.308594 C 33.570312 16.453125 31.523438 11.742188 30.925781 6.257812 Z M 30.925781 6.257812 "/>
</g>
</svg>
