<?xml version="1.0" encoding="UTF-8" standalone="no"?>


<svg
   width="706px"
   height="160px"
   viewBox="0 0 706 160"
   version="1.1"
   id="SVGRoot"
   sodipodi:docname="VPBank.svg"
   inkscape:version="1.1 (c68e22c387, 2021-05-23)"
   xmlns:inkscape="http://www.inkscape.org/namespaces/inkscape"
   xmlns:sodipodi="http://sodipodi.sourceforge.net/DTD/sodipodi-0.dtd"
   xmlns="http://www.w3.org/2000/svg"
   xmlns:svg="http://www.w3.org/2000/svg">
  <sodipodi:namedview
     id="namedview14495"
     pagecolor="#ffffff"
     bordercolor="#666666"
     borderopacity="1.0"
     inkscape:pageshadow="2"
     inkscape:pageopacity="0.0"
     inkscape:pagecheckerboard="0"
     inkscape:document-units="px"
     showgrid="false"
     inkscape:zoom="0.5"
     inkscape:cx="5"
     inkscape:cy="1"
     inkscape:window-width="1920"
     inkscape:window-height="1001"
     inkscape:window-x="-9"
     inkscape:window-y="-9"
     inkscape:window-maximized="1"
     inkscape:current-layer="layer1" />
  <defs
     id="defs14490" />
  <g
     inkscape:label="Layer 1"
     inkscape:groupmode="layer"
     id="layer1">
    <path
       id="path211"
       style="fill:#e00500;fill-opacity:1;stroke:none;stroke-width:0.727794px;stroke-linecap:butt;stroke-linejoin:miter;stroke-opacity:1"
       d="M 52.888003,0.01129563 C 51.49551,0.08255344 50.298016,0.79007538 50.298016,2.2430169 V 49.545598 c 0,0 0.169165,7.642511 6.946807,15.28518 6.777457,7.642697 34.183782,39.222922 34.183782,39.222922 V 42.169536 L 56.650621,1.5990685 C 55.867577,0.50546466 54.280428,-0.05987221 52.888003,0.01129563 Z m 82.023667,0.07945503 c -1.22704,0.03777604 -2.65109,0.69882491 -3.83658,2.01279954 L 96.581458,42.190755 V 104.05357 L 132.51791,62.378601 c 0,0 5.22389,-6.776949 5.22389,-14.708071 V 2.9678382 c 0,-1.9452999 -1.25252,-2.92568921 -2.83013,-2.87708754 z M 3.2015483,57.630889 c -3.16987211,0 -4.5106489,3.98329 -1.4627314,7.071859 0,0 57.6667071,67.176392 69.2488961,80.343502 11.582151,13.16709 20.440892,12.77342 20.440892,12.77342 V 112.6166 c 0,0 -21.903924,-26.091126 -34.095653,-40.23357 C 45.141191,58.240571 27.098065,57.630889 27.098065,57.630889 Z m 157.7104117,0 c 0,0 -18.04312,0.609682 -30.23488,14.752141 C 118.4853,86.525474 96.581458,112.6166 96.581458,112.6166 v 45.20307 c 0,0 8.857242,0.39367 20.439442,-12.77342 11.58218,-13.16711 69.25028,-80.343502 69.25028,-80.343502 3.04794,-3.088569 1.70717,-7.071859 -1.46271,-7.071859 z m 515.10333,28.440974 c 0,0 -8.55334,2.14e-4 -14.36968,6.843021 l -18.42378,20.956886 v 23.52126 c 0,0 3.28292,1.28342 6.44767,-1.62476 l 39.99206,-46.144139 c 1.53697,-1.697213 1.0206,-3.552268 -1.12013,-3.552268 z" />
    <path
       id="path1597"
       style="fill:#00b74f;fill-opacity:1;stroke:none;stroke-width:0.727794px;stroke-linecap:butt;stroke-linejoin:miter;stroke-opacity:1"
       d="m 211.53941,57.631 33.93929,100.18875 h 24.56019 L 303.68118,57.631 H 282.09612 L 257.68492,133.85928 233.12316,57.631 Z m 100.92368,0 v 100.18875 h 19.20296 v -33.33794 h 20.69083 c 0,0 12.51033,-9.4e-4 22.91854,-10.57012 4.71488,-4.78772 8.19206,-11.06423 8.19206,-22.030109 C 383.46748,64.342779 356.6737,57.631 350.71957,57.631 H 331.66605 316.6309 Z m 80.2341,0 v 100.18875 h 12.65251 7.44289 23.51846 c 0,0 13.51722,2.9e-4 21.66333,-8.54732 4.2238,-4.43202 8.40666,-10.7879 8.40666,-20.7721 -0.29765,-2.53056 0.14795,-17.26693 -13.10051,-22.62573 0,0 15.0351,-11.001858 7.5923,-29.622221 C 453.43001,57.632024 433.33439,57.631 433.33439,57.631 h -20.5418 -8.33552 z m 232.68199,0 v 100.18875 h 17.84265 V 57.631 Z m 70.92483,0.164752 a 9.6954742,9.6971825 0 0 0 -9.69442,9.697364 9.6954742,9.6971825 0 0 0 9.69442,9.697335 9.6954742,9.6971825 0 0 0 9.69583,-9.697335 9.6954742,9.6971825 0 0 0 -9.69583,-9.697364 z m -0.0582,2.190544 a 7.4470126,7.4483256 0 0 1 7.44713,7.448522 7.4470126,7.4483256 0 0 1 -7.44713,7.448584 7.4470126,7.4483256 0 0 1 -7.44562,-7.448584 7.4470126,7.4483256 0 0 1 7.44562,-7.448522 z m -3.78967,2.626876 v 10.015751 h 2.33532 v -3.741325 h 0.67407 l 2.46617,3.741325 h 2.5998 l -2.63236,-3.741325 c 0,0 2.35494,7.97e-4 2.3153,-2.987939 -0.0436,-3.285763 -3.20523,-3.286487 -3.20523,-3.286487 z m 2.33532,2.177705 h 1.80136 c 0,0 1.08878,0.01932 1.1087,1.009243 0.0195,0.989692 -0.98951,0.990799 -0.98951,0.990799 h -1.92055 z M 331.66599,76.252269 h 19.49959 c 0,0 12.95129,0.58862 12.95129,15.332082 0,14.736769 -13.39737,14.736529 -13.39737,14.736529 h -19.05351 z m 81.12658,0 h 19.64768 c 0,0 10.12384,0.59493 10.12384,11.461387 0,10.866496 -10.42083,10.865823 -10.42083,10.865823 h -19.35069 z m 179.97941,7.641904 c -12.33181,0 -18.90065,5.756043 -22.31602,10.907002 v -8.42798 H 552.9293 v 71.446465 h 17.52666 v -39.7901 c 0,0 0.30578,-17.22027 16.20212,-17.32214 15.89631,-0.1018 14.26458,18.34137 14.26458,18.34137 v 38.77087 h 17.73148 v -46.10712 c 0,0 0.30476,-13.306774 -9.25939,-21.397576 -3.76384,-3.183922 -9.31354,-6.420791 -16.62277,-6.420791 z m -88.1944,0.203257 a 34.289489,37.906883 0 0 0 -34.28899,37.90662 34.289489,37.906883 0 0 0 34.28899,37.90661 34.289489,37.906883 0 0 0 23.28368,-10.17495 v 8.08395 h 18.343 V 86.373195 h -18.343 v 7.899168 A 34.289489,37.906883 0 0 0 504.57758,84.09743 Z m 3.51534,16.88433 a 21.021967,20.869102 0 0 1 21.02214,20.8702 21.021967,20.869102 0 0 1 -21.02214,20.86875 21.021967,20.869102 0 0 1 -21.02073,-20.86875 21.021967,20.869102 0 0 1 21.02073,-20.8702 z M 412.79257,115.252 h 24.56033 c 0,0 9.22973,-0.14909 9.22973,12.05702 0,12.20617 -10.86741,12.20625 -10.86741,12.20625 h -22.92265 z m 249.98741,8.40808 c -0.4293,-0.0166 -0.89993,0.1337 -1.39178,0.56148 l -5.90187,6.50041 c 0,0 -3.41784,4.60872 2.395,11.71872 l 12.57316,15.37897 h 20.3584 l -25.83269,-32.5718 c 0,0 -0.9133,-1.53969 -2.20022,-1.58778 z" />
  </g>
</svg>
